<svg width="97" height="100" viewBox="0 0 97 100" fill="none" xmlns="http://www.w3.org/2000/svg">
<rect width="96.1538" height="100" fill="white"/>
<path d="M48 2L49.881 33.3056L58.681 3.20346L53.5487 34.1428L68.8264 6.75349L56.9381 35.775L77.9275 12.4721L59.8794 38.1206L85.5279 20.0725L62.225 41.0619L91.2465 29.1736L63.8572 44.4513L94.7965 39.319L64.6944 48.119L96 50L64.6944 51.881L94.7965 60.681L63.8572 55.5487L91.2465 70.8264L62.225 58.9381L85.5279 79.9275L59.8794 61.8794L77.9275 87.5279L56.9381 64.225L68.8264 93.2465L53.5487 65.8572L58.681 96.7965L49.881 66.6944L48 98L46.119 66.6944L37.319 96.7965L42.4513 65.8572L27.1736 93.2465L39.0619 64.225L18.0725 87.5279L36.1206 61.8794L10.4721 79.9275L33.775 58.9381L4.75349 70.8264L32.1428 55.5487L1.20346 60.681L31.3056 51.881L0 50L31.3056 48.119L1.20346 39.319L32.1428 44.4513L4.75349 29.1736L33.775 41.0619L10.4721 20.0725L36.1206 38.1206L18.0725 12.4721L39.0619 35.775L27.1736 6.75349L42.4513 34.1428L37.319 3.20346L46.119 33.3056L48 2Z" fill="#FFF848"/>
<path d="M44.6484 60.0469C46.0376 62.0314 50.5027 62.0314 51.7182 60.0469" stroke="black" stroke-width="1.48837" stroke-linecap="round"/>
<path d="M45.3724 46.3133C45.3724 48.6305 44.8237 50.71 43.956 52.1976C43.0829 53.6943 41.9314 54.528 40.7355 54.528C39.5396 54.528 38.3881 53.6943 37.5151 52.1976C36.6473 50.71 36.0987 48.6305 36.0987 46.3133C36.0987 43.9962 36.6473 41.9166 37.5151 40.4291C38.3881 38.9324 39.5396 38.0987 40.7355 38.0987C41.9314 38.0987 43.0829 38.9324 43.956 40.4291C44.8237 41.9166 45.3724 43.9962 45.3724 46.3133Z" fill="white" stroke="black" stroke-width="0.744186"/>
<path d="M59.6849 46.3133C59.6849 48.6305 59.1362 50.71 58.2685 52.1976C57.3954 53.6943 56.2439 54.528 55.048 54.528C53.8521 54.528 52.7006 53.6943 51.8276 52.1976C50.9598 50.71 50.4112 48.6305 50.4112 46.3133C50.4112 43.9962 50.9598 41.9166 51.8276 40.4291C52.7006 38.9324 53.8521 38.0987 55.048 38.0987C56.2439 38.0987 57.3954 38.9324 58.2685 40.4291C59.1362 41.9166 59.6849 43.9962 59.6849 46.3133Z" fill="white" stroke="black" stroke-width="0.744186"/>
<ellipse cx="40.5656" cy="51.1213" rx="2.60465" ry="2.97674" fill="black"/>
<ellipse cx="54.7023" cy="51.1213" rx="2.60465" ry="2.97674" fill="black"/>
</svg>
